<svg aria-hidden="true" style="position: absolute; width: 0; height: 0; overflow: hidden;" version="1.1" xmlns="http://www.w3.org/2000/svg" xmlns:xlink="http://www.w3.org/1999/xlink">
<defs>
<symbol id="icon-arrow-down" viewBox="0 0 53 32">
<path d="M1.211 2.507c0.724-0.724 1.724-1.171 2.828-1.171s2.104 0.448 2.828 1.171l19.8 19.795 19.8-19.795c0.719-0.695 1.699-1.123 2.779-1.123 2.209 0 4 1.791 4 4 0 1.080-0.428 2.060-1.124 2.78l0.001-0.001-22.627 22.629c-0.724 0.724-1.724 1.171-2.828 1.171s-2.104-0.448-2.828-1.171l-22.629-22.632c-0.723-0.724-1.17-1.723-1.17-2.827s0.447-2.103 1.17-2.827l-0 0z"></path>
</symbol>
<symbol id="icon-facebook" viewBox="0 0 32 32">
<path d="M13.912 11.099v2.203h-1.613v2.693h1.613v8.005h3.315v-8.005h2.224s0.21-1.291 0.31-2.704h-2.522v-1.84c0-0.277 0.362-0.646 0.72-0.646h1.805v-2.805h-2.456c-3.478 0-3.397 2.696-3.397 3.099z"></path>
<path d="M6.4 3.2c-1.767 0-3.2 1.433-3.2 3.2v0 19.2c0 1.767 1.433 3.2 3.2 3.2v0h19.2c1.767 0 3.2-1.433 3.2-3.2v0-19.2c0-1.767-1.433-3.2-3.2-3.2v0h-19.2zM6.4 0h19.2c3.535 0 6.4 2.865 6.4 6.4v0 19.2c0 3.535-2.865 6.4-6.4 6.4v0h-19.2c-3.535 0-6.4-2.865-6.4-6.4v0-19.2c0-3.535 2.865-6.4 6.4-6.4v0z"></path>
</symbol>
<symbol id="icon-instagram" viewBox="0 0 32 32">
<path d="M9.404 0.096c1.706-0.079 2.25-0.096 6.596-0.096s4.89 0.019 6.595 0.096c1.705 0.077 2.868 0.349 3.887 0.743 1.066 0.403 2.033 1.033 2.833 1.847 0.815 0.799 1.443 1.764 1.844 2.832 0.396 1.018 0.666 2.182 0.745 3.884 0.079 1.709 0.096 2.253 0.096 6.598 0 4.346-0.019 4.89-0.096 6.596-0.077 1.702-0.349 2.865-0.745 3.884-0.424 1.109-1.051 2.055-1.843 2.834l-0.001 0.001c-0.8 0.815-1.767 1.443-2.833 1.844-1.018 0.396-2.182 0.666-3.884 0.745-1.708 0.079-2.252 0.096-6.598 0.096s-4.89-0.019-6.596-0.096c-1.702-0.077-2.865-0.349-3.884-0.745-1.109-0.424-2.055-1.051-2.834-1.843l-0.001-0.001c-0.794-0.779-1.421-1.725-1.828-2.78l-0.018-0.054c-0.394-1.018-0.665-2.182-0.743-3.884-0.079-1.709-0.096-2.253-0.096-6.598 0-4.346 0.019-4.89 0.096-6.595s0.349-2.868 0.743-3.887c0.425-1.109 1.053-2.054 1.846-2.832l0.001-0.001c0.779-0.793 1.724-1.421 2.778-1.828l0.054-0.018c1.018-0.394 2.182-0.665 3.884-0.743h0.001zM22.465 2.976c-1.687-0.077-2.193-0.093-6.465-0.093s-4.778 0.016-6.465 0.093c-1.561 0.071-2.407 0.332-2.972 0.551-0.746 0.291-1.28 0.636-1.84 1.196-0.518 0.504-0.925 1.119-1.184 1.806l-0.011 0.034c-0.22 0.564-0.48 1.411-0.551 2.972-0.077 1.687-0.093 2.193-0.093 6.465s0.016 4.778 0.093 6.465c0.071 1.561 0.332 2.407 0.551 2.972 0.256 0.694 0.665 1.324 1.196 1.84 0.516 0.531 1.146 0.94 1.84 1.196 0.564 0.22 1.411 0.48 2.972 0.551 1.687 0.077 2.192 0.093 6.465 0.093s4.778-0.016 6.465-0.093c1.561-0.071 2.407-0.332 2.972-0.551 0.746-0.291 1.28-0.636 1.84-1.196 0.531-0.516 0.94-1.146 1.196-1.84 0.22-0.564 0.48-1.411 0.551-2.972 0.077-1.687 0.093-2.193 0.093-6.465s-0.016-4.778-0.093-6.465c-0.071-1.561-0.332-2.407-0.551-2.972-0.291-0.746-0.636-1.28-1.196-1.84-0.504-0.518-1.119-0.925-1.806-1.184l-0.034-0.011c-0.564-0.22-1.411-0.48-2.972-0.551zM13.956 20.932c0.604 0.257 1.306 0.407 2.044 0.407 2.948 0 5.338-2.39 5.338-5.338 0-2.304-1.459-4.266-3.504-5.015l-0.037-0.012c-0.535-0.197-1.153-0.312-1.797-0.312-2.948 0-5.338 2.39-5.338 5.338 0 2.211 1.344 4.108 3.259 4.918l0.035 0.013zM10.185 10.185c1.488-1.488 3.544-2.409 5.815-2.409 4.542 0 8.224 3.682 8.224 8.224 0 2.271-0.921 4.327-2.409 5.815v0c-1.488 1.488-3.544 2.409-5.815 2.409-4.542 0-8.224-3.682-8.224-8.224 0-2.271 0.921-4.327 2.409-5.815v0zM26.048 9.001c0.376-0.355 0.61-0.857 0.61-1.414 0-1.073-0.87-1.944-1.944-1.944-0.517 0-0.987 0.202-1.335 0.531l0.001-0.001c-0.376 0.355-0.61 0.857-0.61 1.414 0 1.073 0.87 1.944 1.944 1.944 0.517 0 0.987-0.202 1.335-0.531l-0.001 0.001z"></path>
</symbol>
<symbol id="icon-phone" viewBox="0 0 19 32">
<path d="M15.6 0c1.988 0 3.6 1.612 3.6 3.6v0 24.8c0 1.988-1.612 3.6-3.6 3.6v0h-12c-1.988 0-3.6-1.612-3.6-3.6v0-24.8c0-1.988 1.612-3.6 3.6-3.6v0h12zM15.6 2.4h-12c-0.663 0-1.2 0.537-1.2 1.2v0 24.8c0 0.662 0.538 1.2 1.2 1.2h12c0.663 0 1.2-0.537 1.2-1.2v0-24.8c0-0.663-0.537-1.2-1.2-1.2v0zM11.598 24.8c0 0 0.001 0 0.002 0 0.663 0 1.2 0.537 1.2 1.2s-0.536 1.199-1.198 1.2l-4 0.006c-0 0-0.001 0-0.002 0-0.663 0-1.2-0.537-1.2-1.2s0.536-1.199 1.198-1.2l4-0.006z"></path>
</symbol>
<symbol id="icon-point" viewBox="0 0 19 32">
<path d="M9.6 0.656c-0.005 0-0.010 0-0.016 0-5.293 0-9.584 4.291-9.584 9.584v0c0 9.166 9.6 21.12 9.6 21.12s9.6-11.957 9.6-21.12c0 0 0 0 0 0 0-5.293-4.291-9.584-9.584-9.584-0.006 0-0.011 0-0.017 0h0.001zM9.6 15.539c-2.863 0-5.184-2.321-5.184-5.184s2.321-5.184 5.184-5.184v0c2.863 0 5.184 2.321 5.184 5.184s-2.321 5.184-5.184 5.184v0z"></path>
</symbol>
<symbol id="icon-telegram" viewBox="0 0 34 32">
<path d="M31.245 1.679c-0.432 0.032-0.833 0.132-1.203 0.291l0.024-0.009h-0.003c-0.36 0.143-2.072 0.862-4.674 1.954l-9.325 3.928c-6.691 2.819-13.268 5.592-13.268 5.592l0.079-0.030s-0.455 0.148-0.926 0.472c-0.295 0.187-0.546 0.431-0.741 0.717-0.227 0.33-0.362 0.739-0.362 1.179 0 0.079 0.004 0.157 0.013 0.234l-0.001-0.009c0.113 0.911 0.704 1.459 1.128 1.76 0.429 0.307 0.839 0.448 0.839 0.448h0.010l6.169 2.078c0.276 0.888 1.88 6.157 2.264 7.372 0.227 0.724 0.45 1.179 0.726 1.524 0.135 0.177 0.29 0.325 0.478 0.445 0.098 0.057 0.202 0.101 0.312 0.135l-0.064-0.017c0.019 0.005 0.034 0.020 0.049 0.025 0.051 0.013 0.084 0.019 0.148 0.029 0.977 0.296 1.762-0.31 1.762-0.31l0.044-0.035 3.641-3.316 6.104 4.682 0.14 0.061c1.272 0.557 2.56 0.248 3.24-0.301 0.687-0.552 0.953-1.258 0.953-1.258l0.044-0.113 4.716-24.163c0.135-0.596 0.168-1.155 0.022-1.696-0.153-0.549-0.505-1.021-0.987-1.324-0.35-0.216-0.773-0.343-1.227-0.343-0.042 0-0.084 0.001-0.126 0.003l0.006-0zM31.119 4.268c-0.005 0.081 0.010 0.071-0.025 0.224v0.013l-4.672 23.912c-0.022 0.034-0.056 0.108-0.148 0.184-0.099 0.077-0.177 0.126-0.588-0.035l-7.464-5.725-4.51 4.109 0.947-6.050 12.197-11.368c0.504-0.467 0.337-0.566 0.337-0.566 0.034-0.573-0.76-0.168-0.76-0.168l-15.384 9.531-0.005-0.025-7.389-2.493c0.015-0.006 0.027-0.011 0.039-0.018l-0.002 0.001 0.040-0.019 0.039-0.013 13.273-5.592c3.35-1.411 6.725-2.831 9.32-3.928 1.539-0.648 3.082-1.293 4.623-1.933 0.104-0.040 0.056-0.040 0.13-0.040z"></path>
</symbol>
<symbol id="icon-x" viewBox="0 0 32 32">
<path stroke-linejoin="round" stroke-linecap="round" stroke-miterlimit="4" stroke-width="2" d="M27.429 3.429l-24 24M3.429 3.429l24 24"></path>
</symbol>
</defs>
</svg>
